<mxfile host="app.diagrams.net" modified="2023-11-06T13:18:07.035Z" agent="Mozilla/5.0 (Windows NT 10.0; Win64; x64; rv:109.0) Gecko/20100101 Firefox/119.0" etag="H-uaR0-_8RhWbTrx9td9" version="22.0.8" type="github">
  <diagram name="Page-1" id="IS7X-GH778DHGXkCfrAZ">
    <mxGraphModel dx="1509" dy="794" grid="1" gridSize="10" guides="1" tooltips="1" connect="1" arrows="1" fold="1" page="1" pageScale="1" pageWidth="850" pageHeight="1100" math="0" shadow="0">
      <root>
        <mxCell id="0" />
        <mxCell id="1" parent="0" />
        <mxCell id="REwJrvfaglykYthQ4lay-5" style="orthogonalLoop=1;jettySize=auto;html=1;exitX=1;exitY=0.25;exitDx=0;exitDy=0;entryX=0;entryY=0.75;entryDx=0;entryDy=0;edgeStyle=orthogonalEdgeStyle;shadow=0;curved=1;strokeColor=default;" edge="1" parent="1" source="REwJrvfaglykYthQ4lay-1" target="REwJrvfaglykYthQ4lay-3">
          <mxGeometry relative="1" as="geometry">
            <Array as="points">
              <mxPoint x="430" y="425" />
              <mxPoint x="430" y="585" />
            </Array>
          </mxGeometry>
        </mxCell>
        <mxCell id="REwJrvfaglykYthQ4lay-6" style="edgeStyle=entityRelationEdgeStyle;rounded=0;orthogonalLoop=1;jettySize=auto;html=1;exitX=1;exitY=1;exitDx=0;exitDy=0;elbow=vertical;jumpStyle=arc;" edge="1" parent="1" source="REwJrvfaglykYthQ4lay-1" target="REwJrvfaglykYthQ4lay-3">
          <mxGeometry relative="1" as="geometry">
            <Array as="points">
              <mxPoint x="280" y="600" />
              <mxPoint x="260" y="580" />
              <mxPoint x="260" y="610" />
            </Array>
          </mxGeometry>
        </mxCell>
        <mxCell id="REwJrvfaglykYthQ4lay-7" style="edgeStyle=entityRelationEdgeStyle;rounded=0;orthogonalLoop=1;jettySize=auto;html=1;exitX=0.5;exitY=1;exitDx=0;exitDy=0;entryX=0.25;entryY=1;entryDx=0;entryDy=0;elbow=vertical;" edge="1" parent="1" source="REwJrvfaglykYthQ4lay-1" target="REwJrvfaglykYthQ4lay-3">
          <mxGeometry relative="1" as="geometry" />
        </mxCell>
        <mxCell id="REwJrvfaglykYthQ4lay-1" value="ddkdkdId" style="rounded=0;whiteSpace=wrap;html=1;" vertex="1" parent="1">
          <mxGeometry x="130" y="410" width="120" height="60" as="geometry" />
        </mxCell>
        <mxCell id="REwJrvfaglykYthQ4lay-2" value="&lt;font face=&quot;Courier New&quot;&gt;ddd&lt;/font&gt;" style="text;html=1;align=center;verticalAlign=middle;resizable=0;points=[];autosize=1;strokeColor=none;fillColor=none;" vertex="1" parent="1">
          <mxGeometry x="750" y="288" width="40" height="30" as="geometry" />
        </mxCell>
        <mxCell id="REwJrvfaglykYthQ4lay-3" value="ddd" style="whiteSpace=wrap;html=1;" vertex="1" parent="1">
          <mxGeometry x="510" y="650" width="120" height="60" as="geometry" />
        </mxCell>
        <mxCell id="REwJrvfaglykYthQ4lay-4" value="" style="endArrow=classic;html=1;rounded=0;" edge="1" parent="1">
          <mxGeometry width="50" height="50" relative="1" as="geometry">
            <mxPoint x="280" y="210" as="sourcePoint" />
            <mxPoint x="330" y="160" as="targetPoint" />
          </mxGeometry>
        </mxCell>
        <mxCell id="REwJrvfaglykYthQ4lay-10" style="rounded=0;orthogonalLoop=1;jettySize=auto;html=1;exitX=0.75;exitY=0;exitDx=0;exitDy=0;entryX=0;entryY=1;entryDx=0;entryDy=0;" edge="1" parent="1" source="REwJrvfaglykYthQ4lay-8" target="REwJrvfaglykYthQ4lay-9">
          <mxGeometry relative="1" as="geometry" />
        </mxCell>
        <mxCell id="REwJrvfaglykYthQ4lay-8" value="ddd" style="rounded=0;whiteSpace=wrap;html=1;" vertex="1" parent="1">
          <mxGeometry x="1000" y="610" width="120" height="60" as="geometry" />
        </mxCell>
        <mxCell id="REwJrvfaglykYthQ4lay-11" style="rounded=0;orthogonalLoop=1;jettySize=auto;html=1;exitX=0;exitY=1;exitDx=0;exitDy=0;entryX=1;entryY=0.25;entryDx=0;entryDy=0;" edge="1" parent="1" source="REwJrvfaglykYthQ4lay-9" target="REwJrvfaglykYthQ4lay-8">
          <mxGeometry relative="1" as="geometry" />
        </mxCell>
        <mxCell id="REwJrvfaglykYthQ4lay-9" value="ddd" style="rounded=0;whiteSpace=wrap;html=1;" vertex="1" parent="1">
          <mxGeometry x="1210" y="530" width="120" height="60" as="geometry" />
        </mxCell>
      </root>
    </mxGraphModel>
  </diagram>
</mxfile>
